<svg width="179" height="51" viewBox="0 0 179 51" fill="none" xmlns="http://www.w3.org/2000/svg">
<path d="M164.627 16.8633H167.697V21.5742L167.51 23.6602H167.697C168.025 23.1133 168.494 22.668 169.104 22.3242C169.729 21.9648 170.424 21.7852 171.189 21.7852C172.674 21.7852 173.768 22.2227 174.471 23.0977C175.189 23.9727 175.549 25.168 175.549 26.6836V33.6445H172.479V27.0586C172.479 26.2617 172.291 25.6602 171.916 25.2539C171.541 24.832 171.018 24.6211 170.346 24.6211C169.924 24.6211 169.549 24.7148 169.221 24.9023C168.893 25.0742 168.611 25.3164 168.377 25.6289C168.158 25.9414 167.986 26.3086 167.861 26.7305C167.752 27.1367 167.697 27.5742 167.697 28.043V33.6445H164.627V16.8633Z" fill="white"/>
<path d="M163.457 30.7148C162.957 31.6836 162.254 32.4805 161.348 33.1055C160.457 33.7148 159.34 34.0195 157.996 34.0195C157.105 34.0195 156.285 33.8711 155.535 33.5742C154.801 33.2617 154.16 32.832 153.613 32.2852C153.082 31.7383 152.66 31.0977 152.348 30.3633C152.051 29.6133 151.902 28.793 151.902 27.9023C151.902 27.0117 152.051 26.1914 152.348 25.4414C152.66 24.6914 153.082 24.0508 153.613 23.5195C154.16 22.9727 154.801 22.5508 155.535 22.2539C156.285 21.9414 157.105 21.7852 157.996 21.7852C159.324 21.7852 160.441 22.0898 161.348 22.6992C162.254 23.3086 162.918 24.0977 163.34 25.0664L160.527 26.2383C160.262 25.707 159.918 25.3086 159.496 25.043C159.09 24.7617 158.574 24.6211 157.949 24.6211C157.543 24.6211 157.16 24.6992 156.801 24.8555C156.441 25.0117 156.121 25.2305 155.84 25.5117C155.574 25.793 155.363 26.1367 155.207 26.543C155.051 26.9492 154.973 27.4023 154.973 27.9023C154.973 28.4023 155.051 28.8555 155.207 29.2617C155.363 29.668 155.574 30.0117 155.84 30.293C156.121 30.5742 156.441 30.793 156.801 30.9492C157.16 31.1055 157.543 31.1836 157.949 31.1836C158.59 31.1836 159.129 31.043 159.566 30.7617C160.02 30.4648 160.379 30.043 160.645 29.4961L163.457 30.7148Z" fill="white"/>
<path d="M151 30.8789C150.469 31.8164 149.75 32.5742 148.844 33.1523C147.953 33.7305 146.859 34.0195 145.563 34.0195C144.688 34.0195 143.875 33.8711 143.125 33.5742C142.391 33.2617 141.75 32.832 141.203 32.2852C140.656 31.7383 140.227 31.0977 139.914 30.3633C139.617 29.6133 139.469 28.793 139.469 27.9023C139.469 27.0742 139.617 26.293 139.914 25.5586C140.211 24.8086 140.625 24.1602 141.156 23.6133C141.688 23.0508 142.313 22.6055 143.031 22.2773C143.766 21.9492 144.57 21.7852 145.445 21.7852C146.367 21.7852 147.188 21.9414 147.906 22.2539C148.625 22.5508 149.227 22.9727 149.711 23.5195C150.195 24.0508 150.563 24.6836 150.813 25.418C151.063 26.1523 151.188 26.9492 151.188 27.8086C151.188 27.918 151.188 28.0117 151.188 28.0898C151.172 28.1836 151.164 28.2695 151.164 28.3477C151.148 28.4258 151.141 28.5117 151.141 28.6055H142.492C142.555 29.0742 142.68 29.4805 142.867 29.8242C143.07 30.1523 143.313 30.4336 143.594 30.668C143.891 30.8867 144.211 31.0508 144.555 31.1602C144.898 31.2539 145.25 31.3008 145.609 31.3008C146.313 31.3008 146.891 31.1445 147.344 30.832C147.813 30.5039 148.18 30.0977 148.445 29.6133L151 30.8789ZM148.211 26.4258C148.195 26.2227 148.125 25.9961 148 25.7461C147.891 25.4961 147.719 25.2617 147.484 25.043C147.266 24.8242 146.984 24.6445 146.641 24.5039C146.313 24.3633 145.914 24.293 145.445 24.293C144.789 24.293 144.211 24.4805 143.711 24.8555C143.211 25.2305 142.859 25.7539 142.656 26.4258H148.211Z" fill="white"/>
<path d="M132.979 33.6445V19.8633H128.291V16.8633H140.83V19.8633H136.143V33.6445H132.979Z" fill="white"/>
<path d="M127.596 30.8789C127.064 31.8164 126.346 32.5742 125.439 33.1523C124.549 33.7305 123.455 34.0195 122.158 34.0195C121.283 34.0195 120.471 33.8711 119.721 33.5742C118.986 33.2617 118.346 32.832 117.799 32.2852C117.252 31.7383 116.822 31.0977 116.51 30.3633C116.213 29.6133 116.064 28.793 116.064 27.9023C116.064 27.0742 116.213 26.293 116.51 25.5586C116.807 24.8086 117.221 24.1602 117.752 23.6133C118.283 23.0508 118.908 22.6055 119.627 22.2773C120.361 21.9492 121.166 21.7852 122.041 21.7852C122.963 21.7852 123.783 21.9414 124.502 22.2539C125.221 22.5508 125.822 22.9727 126.307 23.5195C126.791 24.0508 127.158 24.6836 127.408 25.418C127.658 26.1523 127.783 26.9492 127.783 27.8086C127.783 27.918 127.783 28.0117 127.783 28.0898C127.768 28.1836 127.76 28.2695 127.76 28.3477C127.744 28.4258 127.736 28.5117 127.736 28.6055H119.088C119.15 29.0742 119.275 29.4805 119.463 29.8242C119.666 30.1523 119.908 30.4336 120.189 30.668C120.486 30.8867 120.807 31.0508 121.15 31.1602C121.494 31.2539 121.846 31.3008 122.205 31.3008C122.908 31.3008 123.486 31.1445 123.939 30.832C124.408 30.5039 124.775 30.0977 125.041 29.6133L127.596 30.8789ZM124.807 26.4258C124.791 26.2227 124.721 25.9961 124.596 25.7461C124.486 25.4961 124.314 25.2617 124.08 25.043C123.861 24.8242 123.58 24.6445 123.236 24.5039C122.908 24.3633 122.51 24.293 122.041 24.293C121.385 24.293 120.807 24.4805 120.307 24.8555C119.807 25.2305 119.455 25.7539 119.252 26.4258H124.807Z" fill="white"/>
<path d="M108.588 22.1602H111.471V23.7539H111.658C111.799 23.4727 111.986 23.2148 112.221 22.9805C112.455 22.7461 112.713 22.543 112.994 22.3711C113.291 22.1992 113.604 22.0664 113.932 21.9727C114.275 21.8789 114.611 21.832 114.939 21.832C115.346 21.832 115.689 21.8711 115.971 21.9492C116.268 22.0273 116.518 22.1289 116.721 22.2539L115.9 25.043C115.713 24.9492 115.502 24.8789 115.268 24.832C115.049 24.7695 114.775 24.7383 114.447 24.7383C114.025 24.7383 113.643 24.8242 113.299 24.9961C112.955 25.1523 112.658 25.3789 112.408 25.6758C112.174 25.9727 111.986 26.3242 111.846 26.7305C111.721 27.1211 111.658 27.5508 111.658 28.0195V33.6445H108.588V22.1602Z" fill="white"/>
<path d="M103.779 32.1445H103.592C103.232 32.7227 102.748 33.1836 102.139 33.5273C101.529 33.8555 100.834 34.0195 100.053 34.0195C98.5996 34.0195 97.5137 33.5742 96.7949 32.6836C96.0918 31.793 95.7402 30.6055 95.7402 29.1211V22.1602H98.8105V28.7461C98.8105 29.5742 98.9902 30.1914 99.3496 30.5977C99.7246 30.9883 100.264 31.1836 100.967 31.1836C101.389 31.1836 101.756 31.0977 102.068 30.9258C102.396 30.7383 102.67 30.4961 102.889 30.1992C103.123 29.8867 103.295 29.5273 103.404 29.1211C103.529 28.6992 103.592 28.2539 103.592 27.7852V22.1602H106.662V33.6445H103.779V32.1445Z" fill="white"/>
<path d="M88.3945 24.7852H86.3789V22.1602H88.3945V18.6445H91.4648V22.1602H94.2773V24.7852H91.4648V29.2383C91.4648 29.5039 91.4883 29.7539 91.5352 29.9883C91.5977 30.207 91.707 30.3945 91.8633 30.5508C92.082 30.8008 92.3945 30.9258 92.8008 30.9258C93.0664 30.9258 93.2773 30.9023 93.4336 30.8555C93.5898 30.793 93.7383 30.7148 93.8789 30.6211L94.7461 33.3164C94.3867 33.4883 93.9961 33.6133 93.5742 33.6914C93.168 33.7852 92.7148 33.832 92.2148 33.832C91.6367 33.832 91.1133 33.7461 90.6445 33.5742C90.1914 33.3867 89.8086 33.1367 89.4961 32.8242C88.7617 32.1211 88.3945 31.1211 88.3945 29.8242V24.7852Z" fill="white"/>
<path d="M82.2051 32.1445H82.0176C81.6582 32.7227 81.1738 33.1836 80.5645 33.5273C79.9551 33.8555 79.2598 34.0195 78.4785 34.0195C77.0254 34.0195 75.9395 33.5742 75.2207 32.6836C74.5176 31.793 74.166 30.6055 74.166 29.1211V22.1602H77.2363V28.7461C77.2363 29.5742 77.416 30.1914 77.7754 30.5977C78.1504 30.9883 78.6895 31.1836 79.3926 31.1836C79.8145 31.1836 80.1816 31.0977 80.4941 30.9258C80.8223 30.7383 81.0957 30.4961 81.3145 30.1992C81.5488 29.8867 81.7207 29.5273 81.8301 29.1211C81.9551 28.6992 82.0176 28.2539 82.0176 27.7852V22.1602H85.0879V33.6445H82.2051V32.1445Z" fill="white"/>
<path d="M62.7266 16.8633H73.3672V19.8633H65.8906V23.9414H72.6172V26.9414H65.8906V33.6445H62.7266V16.8633Z" fill="white"/>
<path d="M33.332 50.5007V42.1673C37.9431 42.1673 41.6654 38.4451 41.6654 33.834H49.9987C49.9987 43.0562 42.5265 50.5007 33.332 50.5007Z" fill="#FFD11A"/>
<path d="M33.3327 50.5007V42.1673C28.7216 42.1673 24.9993 38.4451 24.9993 33.834H16.666C16.666 43.0562 24.1382 50.5007 33.3327 50.5007Z" fill="#FFD11A"/>
<path d="M0 33.832H8.33333C8.33333 38.4431 12.0556 42.1654 16.6667 42.1654V50.4987C7.47222 50.4987 0 43.0543 0 33.832Z" fill="#FFD11A"/>
<path d="M0 33.8327H8.33333C8.33333 29.2216 12.0556 25.4993 16.6667 25.4993V17.166C7.47222 17.166 0 24.6382 0 33.8327Z" fill="#FFD11A"/>
<path d="M16.6667 0.5V8.83333C12.0556 8.83333 8.33333 12.5556 8.33333 17.1667H0C0 7.97222 7.47222 0.5 16.6667 0.5Z" fill="#FFD11A"/>
<path d="M16.666 0.5V8.83333C21.2771 8.83333 24.9993 12.5556 24.9993 17.1667H33.3327C33.3327 7.97222 25.8605 0.5 16.666 0.5Z" fill="#FFD11A"/>
<path d="M50.0007 17.1667H41.6673C41.6673 12.5556 37.9451 8.83333 33.334 8.83333V0.5C42.5284 0.5 50.0007 7.97222 50.0007 17.1667Z" fill="#FFD11A"/>
<path d="M50.0007 17.166H41.6673C41.6673 21.7771 37.9451 25.4993 33.334 25.4993V33.8327C42.5284 33.8327 50.0007 26.3882 50.0007 17.166Z" fill="#FFD11A"/>
</svg>
